<svg id="Layer_2" data-name="Layer 2" xmlns="http://www.w3.org/2000/svg" viewBox="0 0 840 160"><defs><style>.cls-1{fill:#fff;}.cls-2{fill:#8b9dc8;}.cls-3{fill:#a39c9c;}.cls-4{fill:#605562;}</style></defs><rect class="cls-1" x="-1.21" y="-1" width="843.41" height="162"/><rect class="cls-2" x="587.52" y="19.09" width="229.68" height="121.64"/><circle class="cls-3" cx="81.6" cy="80.95" r="29.58"/><path class="cls-2" d="M121.37,33.57,106.06,48.88a39.28,39.28,0,0,0-55,55L35.72,119.23a60.81,60.81,0,0,1,85.65-85.66Z"/><path class="cls-4" d="M143.14,80.2a60.8,60.8,0,0,1-99.82,46.63l15.31-15.31a39.25,39.25,0,0,0,42.81,3L78.53,91.62V76.42H93.74l22.92,22.92a39.29,39.29,0,0,0-3-42.85L129,41.17A60.62,60.62,0,0,1,143.14,80.2Z"/><path class="cls-2" d="M194.32,54.48a10.36,10.36,0,0,0-3.81-2.9,12.77,12.77,0,0,0-5.23-1,13,13,0,0,0-9.88,4.35,14.87,14.87,0,0,0-2.89,4.89,18.54,18.54,0,0,0,0,12.3A15.18,15.18,0,0,0,175.37,77a12.93,12.93,0,0,0,4.28,3.21,12.45,12.45,0,0,0,5.29,1.14A11.9,11.9,0,0,0,190.68,80a11.32,11.32,0,0,0,4.11-3.77l8.76,6.54A18.25,18.25,0,0,1,195.87,89a23.78,23.78,0,0,1-9.58,2A29.32,29.32,0,0,1,176,89.27a23.58,23.58,0,0,1-8.16-5,22.84,22.84,0,0,1-5.36-7.93,27,27,0,0,1-1.92-10.38,27,27,0,0,1,1.92-10.38,22.8,22.8,0,0,1,5.36-7.92,23.6,23.6,0,0,1,8.16-5,29.32,29.32,0,0,1,10.31-1.75,25,25,0,0,1,4.22.37,22.78,22.78,0,0,1,4.31,1.18,19,19,0,0,1,4.08,2.16,16.56,16.56,0,0,1,3.51,3.3Z"/><path class="cls-2" d="M206.72,65.94a27,27,0,0,1,1.92-10.38A22.8,22.8,0,0,1,214,47.64a23.6,23.6,0,0,1,8.16-5,31.27,31.27,0,0,1,20.63,0,23.6,23.6,0,0,1,8.16,5,22.8,22.8,0,0,1,5.36,7.92,27,27,0,0,1,1.92,10.38,27,27,0,0,1-1.92,10.38A22.84,22.84,0,0,1,251,84.25a23.58,23.58,0,0,1-8.16,5,31.27,31.27,0,0,1-20.63,0,23.58,23.58,0,0,1-8.16-5,22.84,22.84,0,0,1-5.36-7.93A27,27,0,0,1,206.72,65.94Zm10.92,0a17.41,17.41,0,0,0,1.05,6.17,13.86,13.86,0,0,0,3,4.85,13.61,13.61,0,0,0,4.68,3.21,16.92,16.92,0,0,0,12.21,0A13.61,13.61,0,0,0,243.26,77a13.86,13.86,0,0,0,3-4.85,18.54,18.54,0,0,0,0-12.3,13.71,13.71,0,0,0-7.68-8.1,16.92,16.92,0,0,0-12.21,0,13.71,13.71,0,0,0-7.68,8.1A17.46,17.46,0,0,0,217.64,65.94Z"/><path class="cls-2" d="M265.38,42.07h15.91l11,31.15h.13l11.06-31.15h15.84V89.81H308.8V53.2h-.14L296.12,89.81h-8L276,53.2h-.14V89.81H265.38Z"/><path class="cls-2" d="M329,42.07h17.73a35,35,0,0,1,7,.68,16,16,0,0,1,5.77,2.32,11.9,11.9,0,0,1,3.91,4.45,15.35,15.35,0,0,1,1.45,7,16.23,16.23,0,0,1-1.35,7,11.51,11.51,0,0,1-3.71,4.52,15.06,15.06,0,0,1-5.59,2.39,33,33,0,0,1-7,.71h-7.68V89.81H329ZM339.54,62.3h7a13.59,13.59,0,0,0,2.73-.27,7.21,7.21,0,0,0,2.36-.91,4.89,4.89,0,0,0,1.69-1.75,5.63,5.63,0,0,0,.64-2.8,4.74,4.74,0,0,0-.85-2.93A5.5,5.5,0,0,0,351,51.92a9.09,9.09,0,0,0-2.94-.78,30.63,30.63,0,0,0-3.1-.17h-5.39Z"/><path class="cls-2" d="M371.9,42.07h10.52v38H401.9v9.71h-30Z"/><path class="cls-4" d="M408.1,42.07h32.43v9.71H418.62v8.9h20.7v9.71h-20.7V80.1h23.13v9.71H408.1Z"/><path class="cls-4" d="M445.45,42.07h12l11.8,31.29h.14l12-31.29h11.26L473,89.81h-8.43Z"/><path class="cls-4" d="M495.07,65.94A27,27,0,0,1,497,55.56a22.66,22.66,0,0,1,5.36-7.92,23.65,23.65,0,0,1,8.15-5,31.27,31.27,0,0,1,20.63,0,23.6,23.6,0,0,1,8.16,5,22.8,22.8,0,0,1,5.36,7.92,27,27,0,0,1,1.92,10.38,27,27,0,0,1-1.92,10.38,22.84,22.84,0,0,1-5.36,7.93,23.58,23.58,0,0,1-8.16,5,31.27,31.27,0,0,1-20.63,0,23.63,23.63,0,0,1-8.15-5A22.7,22.7,0,0,1,497,76.32,27,27,0,0,1,495.07,65.94Zm10.93,0a17.41,17.41,0,0,0,1,6.17A14.16,14.16,0,0,0,510,77a13.75,13.75,0,0,0,4.69,3.21,16.89,16.89,0,0,0,12.2,0A13.75,13.75,0,0,0,531.62,77a14.16,14.16,0,0,0,3-4.85,18.7,18.7,0,0,0,0-12.3,14.15,14.15,0,0,0-3-4.89,13.89,13.89,0,0,0-4.69-3.21,16.89,16.89,0,0,0-12.2,0A13.89,13.89,0,0,0,510,54.92a14.15,14.15,0,0,0-3,4.89A17.46,17.46,0,0,0,506,65.94Z"/><path class="cls-3" d="M172.21,110.21h4.67a8.8,8.8,0,0,1,2.49.32,6.73,6.73,0,0,1,1.85.86,5.31,5.31,0,0,1,1.3,1.24,6.6,6.6,0,0,1,.83,1.44,7.42,7.42,0,0,1,.43,1.47,7.59,7.59,0,0,1,.13,1.36,6.64,6.64,0,0,1-.47,2.49,6.25,6.25,0,0,1-1.4,2.14,6.9,6.9,0,0,1-2.29,1.5,8.22,8.22,0,0,1-3.17.57h-4.37ZM174,121.89h2.28a7.48,7.48,0,0,0,2.19-.31,5.4,5.4,0,0,0,1.8-.93,4.49,4.49,0,0,0,1.23-1.56,5,5,0,0,0,.46-2.19,6.4,6.4,0,0,0-.21-1.5,4.52,4.52,0,0,0-.79-1.64,4.66,4.66,0,0,0-1.59-1.31,5.67,5.67,0,0,0-2.65-.54H174Z"/><path class="cls-3" d="M186.52,110.21h8.64v1.7h-6.82v4h6.35v1.7h-6.35v4.29h7.16v1.71h-9Z"/><path class="cls-3" d="M207.39,113.1A3.62,3.62,0,0,0,206,112a4.21,4.21,0,0,0-1.8-.4,4.7,4.7,0,0,0-2,.43,4.76,4.76,0,0,0-1.57,1.16,5.4,5.4,0,0,0-1,1.73,6.19,6.19,0,0,0-.36,2.13,5.8,5.8,0,0,0,.34,2,4.93,4.93,0,0,0,1,1.66,4.74,4.74,0,0,0,1.57,1.14,5,5,0,0,0,2.1.41,4.1,4.1,0,0,0,2-.47,4.23,4.23,0,0,0,1.48-1.32l1.53,1.15a6.28,6.28,0,0,1-.53.6,5.43,5.43,0,0,1-1,.77,7,7,0,0,1-1.5.68,6.35,6.35,0,0,1-2,.3,6.63,6.63,0,0,1-2.86-.61,6.7,6.7,0,0,1-2.17-1.59,6.91,6.91,0,0,1-1.38-2.22,7.05,7.05,0,0,1-.47-2.5,7.87,7.87,0,0,1,.51-2.87,6.9,6.9,0,0,1,1.43-2.27,6.37,6.37,0,0,1,2.2-1.48,7.44,7.44,0,0,1,2.84-.53,7,7,0,0,1,2.6.51,4.87,4.87,0,0,1,2.09,1.57Z"/><path class="cls-3" d="M211.38,110.21h1.82V123.6h-1.82Z"/><path class="cls-3" d="M217,120.8a2.89,2.89,0,0,0,1.25,1.08,3.67,3.67,0,0,0,1.58.35,3.09,3.09,0,0,0,.93-.14,2.75,2.75,0,0,0,.86-.42,2.34,2.34,0,0,0,.63-.7,1.92,1.92,0,0,0,.25-1,1.47,1.47,0,0,0-.49-1.18,4.31,4.31,0,0,0-1.22-.68c-.49-.18-1-.36-1.59-.53a6,6,0,0,1-1.59-.71,3.84,3.84,0,0,1-1.22-1.22,3.78,3.78,0,0,1-.49-2.07,3.42,3.42,0,0,1,.25-1.24,3.31,3.31,0,0,1,.81-1.21,4.16,4.16,0,0,1,1.41-.92,5.14,5.14,0,0,1,2.07-.37,7.18,7.18,0,0,1,2.09.3,3.56,3.56,0,0,1,1.76,1.23l-1.47,1.34a2.53,2.53,0,0,0-1-.85,3.05,3.05,0,0,0-1.41-.32,3.46,3.46,0,0,0-1.26.2,2.12,2.12,0,0,0-.8.51,1.7,1.7,0,0,0-.43.67,2.1,2.1,0,0,0-.12.66,1.68,1.68,0,0,0,.49,1.31,3.67,3.67,0,0,0,1.22.73,15.64,15.64,0,0,0,1.59.52,6.69,6.69,0,0,1,1.58.63,3.58,3.58,0,0,1,1.22,1.1,3.2,3.2,0,0,1,.49,1.9,4,4,0,0,1-.36,1.73,3.84,3.84,0,0,1-1,1.31,4.36,4.36,0,0,1-1.47.81,5.69,5.69,0,0,1-1.82.29,6.6,6.6,0,0,1-2.43-.46,4,4,0,0,1-1.84-1.4Z"/><path class="cls-3" d="M227.15,110.21H229V123.6h-1.81Z"/><path class="cls-3" d="M238.55,123.94a7.23,7.23,0,0,1-2.82-.54,6.54,6.54,0,0,1-2.2-1.49,6.91,6.91,0,0,1-1.44-2.23,7.43,7.43,0,0,1-.52-2.78,7.51,7.51,0,0,1,.52-2.78,7,7,0,0,1,1.44-2.23,6.51,6.51,0,0,1,2.2-1.48,7.63,7.63,0,0,1,5.64,0,6.61,6.61,0,0,1,2.2,1.48,7,7,0,0,1,1.44,2.23,7.51,7.51,0,0,1,.51,2.78,7.43,7.43,0,0,1-.51,2.78,6.91,6.91,0,0,1-1.44,2.23,6.64,6.64,0,0,1-2.2,1.49A7.23,7.23,0,0,1,238.55,123.94Zm0-1.71a5,5,0,0,0,2.08-.42,4.85,4.85,0,0,0,1.59-1.15,5,5,0,0,0,1-1.69,6.13,6.13,0,0,0,0-4.14,5.06,5.06,0,0,0-1-1.69,5,5,0,0,0-7.34,0,5.06,5.06,0,0,0-1,1.69,6.13,6.13,0,0,0,0,4.14,5,5,0,0,0,1,1.69,4.85,4.85,0,0,0,1.59,1.15A5,5,0,0,0,238.55,122.23Z"/><path class="cls-3" d="M248.13,110.21h2.39l7.37,11h0v-11h1.81V123.6h-2.31l-7.44-11h0v11h-1.82Z"/><path class="cls-3" d="M272.63,110.21h1.65L280,123.6h-2.12l-1.34-3.31h-6.37l-1.33,3.31h-2.11Zm3.26,8.49-2.5-6.15h0l-2.53,6.15Z"/><path class="cls-3" d="M281.75,110.21h2.38l7.37,11h0v-11h1.81V123.6h-2.3l-7.45-11h0v11h-1.81Z"/><path class="cls-3" d="M296.49,110.21h4.67a8.8,8.8,0,0,1,2.49.32,6.73,6.73,0,0,1,1.85.86,5.31,5.31,0,0,1,1.3,1.24,6.6,6.6,0,0,1,.83,1.44,7.42,7.42,0,0,1,.43,1.47,7.59,7.59,0,0,1,.13,1.36,6.64,6.64,0,0,1-.47,2.49,6.25,6.25,0,0,1-1.4,2.14A7,7,0,0,1,304,123a8.22,8.22,0,0,1-3.17.57h-4.37Zm1.82,11.68h2.28a7.48,7.48,0,0,0,2.19-.31,5.4,5.4,0,0,0,1.8-.93,4.49,4.49,0,0,0,1.23-1.56,5,5,0,0,0,.46-2.19,6.4,6.4,0,0,0-.21-1.5,4.52,4.52,0,0,0-.79-1.64,4.66,4.66,0,0,0-1.59-1.31,5.67,5.67,0,0,0-2.65-.54h-2.72Z"/><path class="cls-3" d="M322.2,123.94a7.15,7.15,0,0,1-2.81-.54,6.58,6.58,0,0,1-2.21-1.49,6.72,6.72,0,0,1-1.43-2.23,7.69,7.69,0,0,1,0-5.56,6.82,6.82,0,0,1,1.43-2.23,6.55,6.55,0,0,1,2.21-1.48,7.15,7.15,0,0,1,2.81-.54,7.23,7.23,0,0,1,2.82.54,6.51,6.51,0,0,1,2.2,1.48,7,7,0,0,1,1.44,2.23,7.51,7.51,0,0,1,.52,2.78,7.43,7.43,0,0,1-.52,2.78,6.91,6.91,0,0,1-1.44,2.23,6.54,6.54,0,0,1-2.2,1.49A7.23,7.23,0,0,1,322.2,123.94Zm0-1.71a5,5,0,0,0,2.08-.42,4.85,4.85,0,0,0,1.59-1.15,5,5,0,0,0,1-1.69,6.13,6.13,0,0,0,0-4.14,5.06,5.06,0,0,0-1-1.69,5.13,5.13,0,0,0-5.75-1.14,4.88,4.88,0,0,0-2.61,2.83,6.13,6.13,0,0,0,0,4.14,5,5,0,0,0,1,1.69,5.07,5.07,0,0,0,1.59,1.15A5,5,0,0,0,322.2,122.23Z"/><path class="cls-3" d="M331.79,110.21h4.7a5.55,5.55,0,0,1,2.12.35,3.61,3.61,0,0,1,1.32.89,3.08,3.08,0,0,1,.67,1.21,4.51,4.51,0,0,1,0,2.59,3.08,3.08,0,0,1-.67,1.21,3.73,3.73,0,0,1-1.32.89,5.55,5.55,0,0,1-2.12.35H333.6v5.9h-1.81Zm1.81,5.9H336a6,6,0,0,0,1-.09,2.69,2.69,0,0,0,.93-.31,1.69,1.69,0,0,0,.65-.65,2.57,2.57,0,0,0,0-2.21,1.63,1.63,0,0,0-.65-.65,2.69,2.69,0,0,0-.93-.32,7.2,7.2,0,0,0-1-.08H333.6Z"/><path class="cls-3" d="M345.8,111.91h-4.32v-1.7h10.44v1.7h-4.31V123.6H345.8Z"/><path class="cls-3" d="M353.85,110.21h1.81V123.6h-1.81Z"/><path class="cls-3" d="M359,110.21h2.7l4.26,10.13H366l4.22-10.13h2.7V123.6h-1.81v-11h0l-4.52,11h-1.21l-4.52-11h0v11H359Z"/><path class="cls-3" d="M376.23,110.21h1.82V123.6h-1.82Z"/><path class="cls-3" d="M380.37,121.89l7.62-10H380.6v-1.7h9.66v1.7l-7.58,10h7.69v1.71h-10Z"/><path class="cls-3" d="M396.89,110.21h1.65l5.73,13.39h-2.12l-1.34-3.31h-6.37l-1.33,3.31H391Zm3.26,8.49-2.5-6.15h0l-2.53,6.15Z"/><path class="cls-3" d="M407.07,111.91h-4.32v-1.7h10.44v1.7h-4.31V123.6h-1.81Z"/><path class="cls-3" d="M415.12,110.21h1.81V123.6h-1.81Z"/><path class="cls-3" d="M426.52,123.94a7.23,7.23,0,0,1-2.82-.54,6.54,6.54,0,0,1-2.2-1.49,6.91,6.91,0,0,1-1.44-2.23,7.43,7.43,0,0,1-.52-2.78,7.51,7.51,0,0,1,.52-2.78,7,7,0,0,1,1.44-2.23,6.51,6.51,0,0,1,2.2-1.48,7.23,7.23,0,0,1,2.82-.54,7.15,7.15,0,0,1,2.81.54,6.55,6.55,0,0,1,2.21,1.48,6.82,6.82,0,0,1,1.43,2.23,7.69,7.69,0,0,1,0,5.56,6.72,6.72,0,0,1-1.43,2.23,6.58,6.58,0,0,1-2.21,1.49A7.15,7.15,0,0,1,426.52,123.94Zm0-1.71a4.89,4.89,0,0,0,4.69-3.26,6.13,6.13,0,0,0,0-4.14,5.06,5.06,0,0,0-1-1.69A4.93,4.93,0,0,0,428.6,112a5,5,0,0,0-5.75,1.14,5.06,5.06,0,0,0-1,1.69,6.13,6.13,0,0,0,0,4.14,5,5,0,0,0,1,1.69,4.85,4.85,0,0,0,1.59,1.15A5,5,0,0,0,426.52,122.23Z"/><path class="cls-3" d="M436.1,110.21h2.38l7.38,11h0v-11h1.81V123.6H445.4l-7.44-11h0v11H436.1Z"/><path class="cls-3" d="M456.8,120.8a3,3,0,0,0,1.26,1.08,3.67,3.67,0,0,0,1.58.35,3.09,3.09,0,0,0,.93-.14,2.75,2.75,0,0,0,.86-.42,2.64,2.64,0,0,0,.63-.7,1.91,1.91,0,0,0,.24-1,1.44,1.44,0,0,0-.49-1.18,4,4,0,0,0-1.22-.68c-.48-.18-1-.36-1.58-.53a6,6,0,0,1-1.59-.71,3.84,3.84,0,0,1-1.22-1.22,3.78,3.78,0,0,1-.49-2.07,3.42,3.42,0,0,1,.25-1.24,3.31,3.31,0,0,1,.81-1.21,4.21,4.21,0,0,1,1.4-.92,5.21,5.21,0,0,1,2.07-.37,7.3,7.3,0,0,1,2.1.3,3.56,3.56,0,0,1,1.76,1.23l-1.47,1.34a2.53,2.53,0,0,0-1-.85,3.09,3.09,0,0,0-1.42-.32,3.44,3.44,0,0,0-1.25.2,2.25,2.25,0,0,0-.81.51,1.79,1.79,0,0,0-.42.67,2.1,2.1,0,0,0-.12.66,1.68,1.68,0,0,0,.49,1.31,3.57,3.57,0,0,0,1.22.73,16.28,16.28,0,0,0,1.58.52,6.6,6.6,0,0,1,1.59.63,3.67,3.67,0,0,1,1.22,1.1,3.2,3.2,0,0,1,.49,1.9,3.89,3.89,0,0,1-.37,1.73,3.7,3.7,0,0,1-1,1.31,4.46,4.46,0,0,1-1.47.81,5.74,5.74,0,0,1-1.82.29,6.69,6.69,0,0,1-2.44-.46,4,4,0,0,1-1.83-1.4Z"/><path class="cls-3" d="M468.49,110.21v8.2a5,5,0,0,0,.17,1.3,3.76,3.76,0,0,0,.56,1.24,3.21,3.21,0,0,0,1,.93,3.79,3.79,0,0,0,3.18,0,3.11,3.11,0,0,0,1-.93,4,4,0,0,0,.57-1.24,5.46,5.46,0,0,0,.17-1.3v-8.2H477v8.49a5.43,5.43,0,0,1-.4,2.13,5.16,5.16,0,0,1-1.09,1.65,4.82,4.82,0,0,1-1.65,1.08,5.67,5.67,0,0,1-4.08,0,4.69,4.69,0,0,1-1.64-1.08,5,5,0,0,1-1.1-1.65,5.43,5.43,0,0,1-.4-2.13v-8.49Z"/><path class="cls-3" d="M480.23,110.21h4.7a5.55,5.55,0,0,1,2.12.35,3.48,3.48,0,0,1,1.31.89,3,3,0,0,1,.68,1.21,4.75,4.75,0,0,1,0,2.59,3,3,0,0,1-.68,1.21,3.6,3.6,0,0,1-1.31.89,5.55,5.55,0,0,1-2.12.35H482v5.9h-1.81Zm1.81,5.9h2.38a6,6,0,0,0,1.05-.09,2.69,2.69,0,0,0,.93-.31,1.69,1.69,0,0,0,.65-.65,2.57,2.57,0,0,0,0-2.21,1.63,1.63,0,0,0-.65-.65,2.69,2.69,0,0,0-.93-.32,7.2,7.2,0,0,0-1.05-.08H482Z"/><path class="cls-3" d="M491.44,110.21h4.7a5.55,5.55,0,0,1,2.12.35,3.61,3.61,0,0,1,1.32.89,3.08,3.08,0,0,1,.67,1.21,4.51,4.51,0,0,1,0,2.59,3.08,3.08,0,0,1-.67,1.21,3.73,3.73,0,0,1-1.32.89,5.55,5.55,0,0,1-2.12.35h-2.89v5.9h-1.81Zm1.81,5.9h2.38a6,6,0,0,0,1.05-.09,2.69,2.69,0,0,0,.93-.31,1.69,1.69,0,0,0,.65-.65,2.57,2.57,0,0,0,0-2.21,1.63,1.63,0,0,0-.65-.65,2.69,2.69,0,0,0-.93-.32,7.2,7.2,0,0,0-1.05-.08h-2.38Z"/><path class="cls-3" d="M508.79,123.94a7.23,7.23,0,0,1-2.82-.54,6.64,6.64,0,0,1-2.2-1.49,6.72,6.72,0,0,1-1.43-2.23,7.69,7.69,0,0,1,0-5.56,6.82,6.82,0,0,1,1.43-2.23,6.61,6.61,0,0,1,2.2-1.48,7.63,7.63,0,0,1,5.64,0,6.61,6.61,0,0,1,2.2,1.48,7,7,0,0,1,1.44,2.23,7.51,7.51,0,0,1,.52,2.78,7.43,7.43,0,0,1-.52,2.78,6.91,6.91,0,0,1-1.44,2.23,6.64,6.64,0,0,1-2.2,1.49A7.23,7.23,0,0,1,508.79,123.94Zm0-1.71a5,5,0,0,0,2.08-.42,4.85,4.85,0,0,0,1.59-1.15,5,5,0,0,0,1-1.69,6.13,6.13,0,0,0,0-4.14,5.06,5.06,0,0,0-1-1.69,5,5,0,0,0-7.34,0,5.06,5.06,0,0,0-1,1.69,6.13,6.13,0,0,0,0,4.14,5,5,0,0,0,1,1.69,4.85,4.85,0,0,0,1.59,1.15A5,5,0,0,0,508.79,122.23Z"/><path class="cls-3" d="M518.38,110.21h4.7a5.55,5.55,0,0,1,2.12.35,3.56,3.56,0,0,1,1.31.89,3,3,0,0,1,.68,1.21,5,5,0,0,1,.18,1.29,3.46,3.46,0,0,1-.87,2.32,4,4,0,0,1-1,.81,3.64,3.64,0,0,1-1.38.41l3.8,6.11h-2.26l-3.41-5.9h-2v5.9h-1.81Zm1.81,5.9h2.38a6.12,6.12,0,0,0,1-.09,2.69,2.69,0,0,0,.93-.31,1.69,1.69,0,0,0,.65-.65,2.57,2.57,0,0,0,0-2.21,1.63,1.63,0,0,0-.65-.65,2.69,2.69,0,0,0-.93-.32,7.31,7.31,0,0,0-1-.08h-2.38Z"/><path class="cls-3" d="M532.38,111.91h-4.31v-1.7h10.44v1.7H534.2V123.6h-1.82Z"/><path class="cls-1" d="M638.2,52.41H624.91V43.33h36.86v9.08h-13.3V89.92H638.2Z"/><path class="cls-1" d="M676.25,43.33h8.49L705,89.92H693.42l-4-9.87h-18.1l-3.88,9.87H656.11Zm3.94,13.56-5.66,14.47h11.39Z"/><path class="cls-1" d="M732.71,54.71a7.25,7.25,0,0,0-3.39-2.33,12,12,0,0,0-4-.76,11,11,0,0,0-2.31.26,8.67,8.67,0,0,0-2.23.83A4.76,4.76,0,0,0,719,54.19a3.79,3.79,0,0,0-.65,2.23A3.7,3.7,0,0,0,720,59.65a14.9,14.9,0,0,0,4,1.91q2.4.78,5.16,1.58a20.75,20.75,0,0,1,5.17,2.24,12.18,12.18,0,0,1,4,3.88,11.75,11.75,0,0,1,1.58,6.51,14.92,14.92,0,0,1-1.45,6.78,13.74,13.74,0,0,1-3.91,4.81,16.89,16.89,0,0,1-5.73,2.83,25.29,25.29,0,0,1-6.88.92,25,25,0,0,1-8.42-1.38,21.15,21.15,0,0,1-7.24-4.48l7.31-8a10.62,10.62,0,0,0,4,3.26,11.34,11.34,0,0,0,5,1.15,11.62,11.62,0,0,0,2.53-.29,8.41,8.41,0,0,0,2.3-.89,5,5,0,0,0,1.65-1.52,3.72,3.72,0,0,0,.62-2.17,3.92,3.92,0,0,0-1.61-3.32,15.11,15.11,0,0,0-4-2.08c-1.63-.57-3.38-1.14-5.27-1.71a23.5,23.5,0,0,1-5.27-2.3,12.59,12.59,0,0,1-4-3.82,10.87,10.87,0,0,1-1.62-6.25,14,14,0,0,1,1.49-6.58A14.18,14.18,0,0,1,713.13,46a17.17,17.17,0,0,1,5.7-2.86,23.13,23.13,0,0,1,6.64-1,26.35,26.35,0,0,1,7.64,1.12A17.76,17.76,0,0,1,739.76,47Z"/><path class="cls-1" d="M747.85,43.33h10.27V62.68l18.1-19.35h13.42L768.91,65l22.51,24.94H777.07l-19-22.11V89.92H747.85Z"/><path class="cls-1" d="M637.54,112.06h2.29l7.1,10.59h0V112.06h1.74v12.88h-2.22l-7.17-10.59h0v10.59h-1.75Z"/><path class="cls-1" d="M656.07,112.06h1.58l5.51,12.88h-2l-1.29-3.18H653.7l-1.27,3.18h-2Zm3.13,8.17-2.41-5.91h0l-2.44,5.91Z"/><path class="cls-1" d="M665.22,122.25a2.91,2.91,0,0,0,1.21,1,3.68,3.68,0,0,0,1.52.33,3.09,3.09,0,0,0,.89-.13,2.8,2.8,0,0,0,.83-.41,2.21,2.21,0,0,0,.61-.68,1.73,1.73,0,0,0,.24-.92,1.38,1.38,0,0,0-.48-1.14,4.21,4.21,0,0,0-1.17-.66q-.71-.25-1.53-.51a6.2,6.2,0,0,1-1.53-.68,3.42,3.42,0,0,1-1.65-3.17,3.48,3.48,0,0,1,.25-1.2,3.31,3.31,0,0,1,.77-1.16,4.21,4.21,0,0,1,1.36-.88,5,5,0,0,1,2-.36,7.1,7.1,0,0,1,2,.29,3.47,3.47,0,0,1,1.69,1.19l-1.42,1.29a2.3,2.3,0,0,0-.92-.82,2.91,2.91,0,0,0-1.37-.31,3.27,3.27,0,0,0-1.21.19,2.17,2.17,0,0,0-.77.49,1.7,1.7,0,0,0-.41.65,1.93,1.93,0,0,0-.12.63,1.64,1.64,0,0,0,.47,1.26,3.71,3.71,0,0,0,1.18.71,12.54,12.54,0,0,0,1.53.49,6.62,6.62,0,0,1,1.52.61,3.52,3.52,0,0,1,1.18,1.06,3.13,3.13,0,0,1,.47,1.83A4,4,0,0,1,672,123a3.77,3.77,0,0,1-1,1.26,4.16,4.16,0,0,1-1.42.78,5.53,5.53,0,0,1-1.75.27,6.16,6.16,0,0,1-2.34-.44,3.92,3.92,0,0,1-1.77-1.34Z"/><path class="cls-1" d="M677.65,113.7H673.5v-1.64h10v1.64h-4.15v11.24h-1.74Z"/><path class="cls-1" d="M687.77,112.06h1.58l5.51,12.88h-2l-1.3-3.18H685.4l-1.27,3.18h-2Zm3.13,8.17-2.41-5.91h0L686,120.23Z"/><path class="cls-1" d="M696.92,122.25a2.91,2.91,0,0,0,1.21,1,3.68,3.68,0,0,0,1.52.33,3.09,3.09,0,0,0,.89-.13,2.8,2.8,0,0,0,.83-.41,2.21,2.21,0,0,0,.61-.68,1.73,1.73,0,0,0,.24-.92,1.38,1.38,0,0,0-.48-1.14,4.21,4.21,0,0,0-1.17-.66q-.71-.25-1.53-.51a6.2,6.2,0,0,1-1.53-.68,3.42,3.42,0,0,1-1.65-3.17,3.48,3.48,0,0,1,.25-1.2,3.31,3.31,0,0,1,.77-1.16,4.21,4.21,0,0,1,1.36-.88,5,5,0,0,1,2-.36,7.1,7.1,0,0,1,2,.29,3.47,3.47,0,0,1,1.69,1.19l-1.42,1.29a2.3,2.3,0,0,0-.92-.82,2.91,2.91,0,0,0-1.37-.31,3.27,3.27,0,0,0-1.21.19,2.17,2.17,0,0,0-.77.49,1.7,1.7,0,0,0-.41.65,1.93,1.93,0,0,0-.12.63,1.64,1.64,0,0,0,.47,1.26,3.71,3.71,0,0,0,1.18.71,12.54,12.54,0,0,0,1.53.49,6.62,6.62,0,0,1,1.52.61,3.52,3.52,0,0,1,1.18,1.06,3.13,3.13,0,0,1,.47,1.83,4,4,0,0,1-.35,1.67,3.77,3.77,0,0,1-1,1.26,4.16,4.16,0,0,1-1.42.78,5.53,5.53,0,0,1-1.75.27,6.16,6.16,0,0,1-2.34-.44,3.92,3.92,0,0,1-1.77-1.34Z"/><path class="cls-1" d="M707,122.25a2.91,2.91,0,0,0,1.21,1,3.68,3.68,0,0,0,1.52.33,3.09,3.09,0,0,0,.89-.13,2.8,2.8,0,0,0,.83-.41,2.21,2.21,0,0,0,.61-.68,1.82,1.82,0,0,0,.23-.92,1.38,1.38,0,0,0-.47-1.14,4.36,4.36,0,0,0-1.17-.66q-.71-.25-1.53-.51a6.2,6.2,0,0,1-1.53-.68,3.42,3.42,0,0,1-1.65-3.17,3.27,3.27,0,0,1,.25-1.2A3.31,3.31,0,0,1,707,113a4.21,4.21,0,0,1,1.36-.88,5,5,0,0,1,2-.36,7.1,7.1,0,0,1,2,.29,3.47,3.47,0,0,1,1.69,1.19l-1.42,1.29a2.4,2.4,0,0,0-.93-.82,2.87,2.87,0,0,0-1.36-.31,3.23,3.23,0,0,0-1.21.19,2.17,2.17,0,0,0-.77.49,1.7,1.7,0,0,0-.41.65,1.93,1.93,0,0,0-.12.63,1.64,1.64,0,0,0,.47,1.26,3.71,3.71,0,0,0,1.18.71,12.94,12.94,0,0,0,1.52.49,6.52,6.52,0,0,1,1.53.61,3.52,3.52,0,0,1,1.18,1.06,3.13,3.13,0,0,1,.47,1.83,3.82,3.82,0,0,1-.36,1.67,3.62,3.62,0,0,1-1,1.26,4.16,4.16,0,0,1-1.42.78,5.58,5.58,0,0,1-1.75.27,6.13,6.13,0,0,1-2.34-.44,3.92,3.92,0,0,1-1.77-1.34Z"/><path class="cls-1" d="M716.77,112.06h1.75v12.88h-1.75Z"/><path class="cls-1" d="M725.87,112.06h1.59L733,124.94h-2l-1.29-3.18h-6.13l-1.28,3.18h-2Zm3.13,8.17-2.4-5.91h0l-2.44,5.91Z"/><path class="cls-1" d="M740.08,122.25a3,3,0,0,0,1.21,1,3.72,3.72,0,0,0,1.52.33,3.16,3.16,0,0,0,.9-.13,2.63,2.63,0,0,0,.82-.41,2.09,2.09,0,0,0,.61-.68,1.73,1.73,0,0,0,.24-.92,1.41,1.41,0,0,0-.47-1.14,4.28,4.28,0,0,0-1.18-.66c-.46-.17-1-.34-1.52-.51a5.89,5.89,0,0,1-1.53-.68,3.76,3.76,0,0,1-1.18-1.17,3.72,3.72,0,0,1-.47-2,3.27,3.27,0,0,1,.25-1.2,3.31,3.31,0,0,1,.77-1.16,4.16,4.16,0,0,1,1.35-.88,5,5,0,0,1,2-.36,7.15,7.15,0,0,1,2,.29,3.52,3.52,0,0,1,1.69,1.19l-1.42,1.29a2.4,2.4,0,0,0-.93-.82,2.87,2.87,0,0,0-1.36-.31,3.23,3.23,0,0,0-1.21.19,2.31,2.31,0,0,0-.78.49,1.82,1.82,0,0,0-.41.65,2.2,2.2,0,0,0-.11.63,1.61,1.61,0,0,0,.47,1.26,3.66,3.66,0,0,0,1.17.71,13.77,13.77,0,0,0,1.53.49,6.88,6.88,0,0,1,1.53.61,3.39,3.39,0,0,1,1.17,1.06,3.06,3.06,0,0,1,.48,1.83,3.82,3.82,0,0,1-.36,1.67,3.62,3.62,0,0,1-1,1.26,4.25,4.25,0,0,1-1.42.78,5.58,5.58,0,0,1-1.75.27,6.18,6.18,0,0,1-2.35-.44,3.83,3.83,0,0,1-1.76-1.34Z"/><path class="cls-1" d="M749.82,112.06h1.75v5.35h6.68v-5.35H760v12.88h-1.74v-5.89h-6.68v5.89h-1.75Z"/><path class="cls-1" d="M763.31,112.06h8.31v1.64h-6.57v3.84h6.12v1.63h-6.12v4.14H772v1.63h-8.64Z"/><path class="cls-1" d="M774.42,112.06H779a5.15,5.15,0,0,1,2,.34,3.45,3.45,0,0,1,1.27.85,2.93,2.93,0,0,1,.64,1.17,4.25,4.25,0,0,1,.19,1.24,3.37,3.37,0,0,1-.85,2.23,3.54,3.54,0,0,1-1,.78,3.39,3.39,0,0,1-1.32.4l3.66,5.87h-2.19l-3.27-5.67h-2v5.67h-1.75Zm1.75,5.68h2.29a6.77,6.77,0,0,0,1-.08,3.08,3.08,0,0,0,.9-.3,1.63,1.63,0,0,0,.62-.63,2.12,2.12,0,0,0,.24-1.07,2.08,2.08,0,0,0-.24-1.06,1.57,1.57,0,0,0-.62-.63,2.58,2.58,0,0,0-.9-.3,6.77,6.77,0,0,0-1-.08h-2.29Z"/><polygon class="cls-1" points="807 55.94 794.69 55.94 783.93 66.69 783.93 66.7 794.68 77.45 807 77.45 807 55.94"/></svg>